<?xml version="1.0" encoding="UTF-8"?>
<svg width="83px" height="20px" viewBox="0 0 83 20" version="1.1" xmlns="http://www.w3.org/2000/svg" xmlns:xlink="http://www.w3.org/1999/xlink">
    <!-- Generator: Sketch 52.1 (67048) - http://www.bohemiancoding.com/sketch -->
    <title>AILab logo light bg</title>
    <desc>Created with Sketch.</desc>
    <g id="Page-1" stroke="none" stroke-width="1" fill="none" fill-rule="evenodd">
        <g id="Light" transform="translate(-9.000000, -8.000000)">
            <g id="AILab-logo-light-bg" transform="translate(9.000000, 8.000000)">
                <path d="M40.8655462,0 L40.8655462,15.9103641 L48.3445378,15.9103641 L48.3445378,19.6078431 L37,19.6078431 L37,0 L40.8655462,0 Z M60.7254902,7.25490196 L60.7254902,5.6022409 L64.3389356,5.6022409 L64.3389356,19.6078431 L60.7254902,19.6078431 L60.7254902,17.9551821 C59.6423849,19.3184008 58.120458,20 56.1596639,20 C54.2922409,20 52.6862812,19.2903899 51.3417367,17.8711485 C50.0158664,16.4332328 49.3529412,14.6778815 49.3529412,12.605042 C49.3529412,10.5508768 50.0158664,8.80486246 51.3417367,7.36694678 C52.6862812,5.92903109 54.2922409,5.21008403 56.1596639,5.21008403 C58.120458,5.21008403 59.6423849,5.89168319 60.7254902,7.25490196 Z M54.0588235,15.4621849 C54.7871185,16.1904798 55.711479,16.5546218 56.8319328,16.5546218 C57.9523866,16.5546218 58.8767471,16.1904798 59.605042,15.4621849 C60.3520112,14.7152157 60.7254902,13.7628443 60.7254902,12.605042 C60.7254902,11.4472398 60.3520112,10.5042053 59.605042,9.77591036 C58.8767471,9.02894118 57.9523866,8.65546218 56.8319328,8.65546218 C55.711479,8.65546218 54.7871185,9.02894118 54.0588235,9.77591036 C53.3305286,10.5042053 52.9663866,11.4472398 52.9663866,12.605042 C52.9663866,13.7628443 53.3305286,14.7152157 54.0588235,15.4621849 Z M75.767507,5.21008403 C77.6536042,5.21008403 79.2595639,5.92903109 80.5854342,7.36694678 C81.9299787,8.80486246 82.6022409,10.5508768 82.6022409,12.605042 C82.6022409,14.6965557 81.9299787,16.451907 80.5854342,17.8711485 C79.2782381,19.2903899 77.6722784,20 75.767507,20 C73.8067129,20 72.294123,19.3184008 71.2296919,17.9551821 L71.2296919,19.6078431 L67.6162465,19.6078431 L67.6162465,0 L71.2296919,0 L71.2296919,7.25490196 C72.294123,5.89168319 73.8067129,5.21008403 75.767507,5.21008403 Z M72.3221289,15.4621849 C73.0504238,16.1904798 73.9747843,16.5546218 75.0952381,16.5546218 C76.2156919,16.5546218 77.1400524,16.1904798 77.8683473,15.4621849 C78.6153165,14.7152157 78.9887955,13.7628443 78.9887955,12.605042 C78.9887955,11.4472398 78.6153165,10.5042053 77.8683473,9.77591036 C77.1400524,9.02894118 76.2156919,8.65546218 75.0952381,8.65546218 C73.9747843,8.65546218 73.0504238,9.02894118 72.3221289,9.77591036 C71.5938339,10.5042053 71.2296919,11.4472398 71.2296919,12.605042 C71.2296919,13.7628443 71.5938339,14.7152157 72.3221289,15.4621849 Z" id="Lab" fill="#2E2E2E"></path>
                <rect id="Rectangle" fill="#2FFFD5" fill-rule="nonzero" x="26" y="0" width="7" height="20" rx="1"></rect>
                <path d="M11.8762159,1.59311983 L21.1849447,18.5180813 C21.4511011,19.0020019 21.2745682,19.6100595 20.7906475,19.8762159 C20.6430025,19.9574206 20.4772317,20 20.3087288,20 L1.69127122,20 C1.13898647,20 0.691271221,19.5522847 0.691271221,19 C0.691271221,18.831497 0.733850572,18.6657262 0.815055312,18.5180813 L10.1237841,1.59311983 C10.3899405,1.10919915 10.9979981,0.932666299 11.4819187,1.19882268 C11.6480785,1.29021052 11.7848281,1.42696012 11.8762159,1.59311983 Z" id="Triangle" fill="#763AFA" fill-rule="nonzero"></path>
                <rect id="Rectangle" fill="#F85DFB" fill-rule="nonzero" x="24" y="0" width="7" height="20" rx="1"></rect>
            </g>
        </g>
    </g>
</svg>